<?xml version="1.0" encoding="utf-8"?>
<!-- Generator: Adobe Illustrator 24.2.1, SVG Export Plug-In . SVG Version: 6.00 Build 0)  -->
<svg version="1.1" id="Capa_1" xmlns="http://www.w3.org/2000/svg" xmlns:xlink="http://www.w3.org/1999/xlink" x="0px" y="0px"
	 viewBox="0 0 512 512" style="enable-background:new 0 0 512 512;" xml:space="preserve">
<style type="text/css">
	.st0{display:none;}
	.st1{display:inline;}
	.st2{fill:#F7E5C1;}
	.st3{fill:#F5DEB2;}
	.st4{fill:#F3D69E;}
	.st5{fill:#EFCB83;}
	.st6{fill:#68B181;}
	.st7{fill:#95C9A6;}
	.st8{fill:#7FBD93;}
</style>
<g>
	<g class="st0">
		<g class="st1">
			<path class="st2" d="M51.7,508.5H19.7c-8.8,0-15.9-7.1-15.9-15.9V341.5l32.8-10.3l30.9,10.3v151.1
				C67.6,501.4,60.4,508.5,51.7,508.5z"/>
		</g>
	</g>
	<g class="st0">
		<g class="st1">
			<path class="st3" d="M36.7,341.5v151.1c0,8.8-7.1,15.9-15.9,15.9h30.9c8.8,0,15.9-7.1,15.9-15.9V341.5l-16.2-10.3L36.7,341.5z"/>
		</g>
	</g>
	<g class="st0">
		<g class="st1">
			<path class="st4" d="M51.7,508.5H19.7c-8.8,0-15.9-7.1-15.9-15.9V469h63.7v23.6C67.6,501.4,60.4,508.5,51.7,508.5z"/>
		</g>
	</g>
	<g class="st0">
		<g class="st1">
			<path class="st5" d="M36.7,469v23.6c0,8.8-7.1,15.9-15.9,15.9h30.9c8.8,0,15.9-7.1,15.9-15.9V469H36.7z"/>
		</g>
	</g>
	<g class="st0">
		<g class="st1">
			<path class="st6" d="M59.5,220.5c-7.2-50.9-7.9-102.6-1.9-153.8l6.4-55.3c1-9-7-16.4-15.8-14.6l-7.3,1.4
				C35.1-0.7,30.7,4,30.1,9.8l-7.4,63.8c-5.6,48.9-5.3,98.3,1,147l12,51.5L59.5,220.5z"/>
		</g>
	</g>
	<g class="st0">
		<g class="st1">
			<path class="st7" d="M32.1,341.4h35.5V306c0-62.6,9.7-104.3,28.8-163.9l17-53c2.8-8.6-3.7-17.4-12.7-17.4h-7.4
				c-5.8,0-10.9,3.8-12.7,9.3l-19.6,61.2C41.8,201.8,32.1,243.4,32.1,306L32.1,341.4z"/>
		</g>
	</g>
	<g class="st0">
		<g class="st1">
			<path class="st8" d="M39.3,341.4H3.8V306c0-62.6-9.7-104.3-28.8-163.9l-17-53c-2.8-8.6,3.7-17.4,12.7-17.4h7.4
				c5.8,0,10.9,3.8,12.7,9.3l19.6,61.2C29.6,201.8,39.3,243.4,39.3,306L39.3,341.4z"/>
		</g>
	</g>
	<g>
		<g>
			<path class="st2" d="M283.9,340.2v-20.4L253,309.5l-32.8,10.3v26.2c0,11.6-4.9,22.6-13.6,30.2c-15.9,13.9-25.8,34.3-25.6,57.1
				c0.4,40.8,34.2,74,75,73.9c41.1-0.2,74.3-33.5,74.3-74.7c0-24.5-11.8-46.3-30.1-59.9C290,365,283.9,353,283.9,340.2z"/>
		</g>
	</g>
	<g>
		<g>
			<path class="st3" d="M300.2,372.7c-10.3-7.6-16.3-19.6-16.3-32.4v-20.4l-18-10.3L253,319.8v20.4c0,12.8,6.1,24.8,16.3,32.4
				c18.2,13.6,30.1,35.4,30.1,59.9c0,35.9-25.4,65.9-59.1,73.1c5.1,1.1,10.3,1.6,15.7,1.6c41.1-0.2,74.3-33.5,74.3-74.7
				C330.3,408,318.5,386.3,300.2,372.7L300.2,372.7z"/>
		</g>
	</g>
	<g>
		<g>
			<path class="st6" d="M275.8,229.8c-7.2-50.9-7.9-102.6-1.9-153.8l6.4-55.3c1-9-7-16.4-15.8-14.6l-7.3,1.4
				c-5.7,1.1-10,5.8-10.7,11.6L239,82.8c-5.6,48.9-5.3,98.3,1,147l15.6,51.5L275.8,229.8z"/>
		</g>
	</g>
	<g>
		<g>
			<path class="st7" d="M248.4,319.7h35.5V305c0-62.6,9.7-94,28.8-153.6l17-53c2.8-8.6-3.7-17.4-12.7-17.4h-7.4
				c-5.8,0-10.9,3.8-12.7,9.3l-19.6,61.2c-19.1,59.6-28.8,91-28.8,153.6L248.4,319.7L248.4,319.7z"/>
		</g>
	</g>
	<g>
		<g>
			<path class="st8" d="M255.6,319.7h-35.5V305c0-62.6-9.7-94-28.8-153.6l-17-53c-2.8-8.6,3.7-17.4,12.7-17.4h7.4
				c5.8,0,10.9,3.8,12.7,9.3l19.6,61.2c19.1,59.6,28.8,91,28.8,153.6L255.6,319.7L255.6,319.7z"/>
		</g>
	</g>
</g>
</svg>
