<?xml version="1.0" encoding="utf-8"?>
<!-- Generator: Adobe Illustrator 24.2.1, SVG Export Plug-In . SVG Version: 6.00 Build 0)  -->
<svg version="1.1" id="Capa_1" xmlns="http://www.w3.org/2000/svg" xmlns:xlink="http://www.w3.org/1999/xlink" x="0px" y="0px"
	 viewBox="0 0 510 176" style="enable-background:new 0 0 510 176;" xml:space="preserve">
<style type="text/css">
	.st0{display:none;}
	.st1{display:inline;}
	.st2{fill:#F7E5C1;}
	.st3{fill:#F5DEB2;}
	.st4{fill:#F3D69E;}
	.st5{fill:#EFCB83;}
	.st6{fill:#68B181;}
	.st7{fill:#95C9A6;}
	.st8{fill:#7FBD93;}
</style>
<g>
	<g class="st0">
		<g class="st1">
			<path class="st2" d="M3-113.9v-31.9c0-8.8,7.1-15.9,15.9-15.9H170l10.3,32.8L170-98H18.9C10.1-98,3-105.2,3-113.9z"/>
		</g>
	</g>
	<g class="st0">
		<g class="st1">
			<path class="st3" d="M170-129H18.9C10.1-129,3-136.1,3-144.9v30.9C3-105.2,10.1-98,18.9-98H170l10.3-16.2L170-129z"/>
		</g>
	</g>
	<g class="st0">
		<g class="st1">
			<path class="st4" d="M3-113.9v-31.9c0-8.8,7.1-15.9,15.9-15.9h23.6V-98H18.9C10.1-98,3-105.2,3-113.9z"/>
		</g>
	</g>
	<g class="st0">
		<g class="st1">
			<path class="st5" d="M42.5-129H18.9C10.1-129,3-136.1,3-144.9v30.9C3-105.2,10.1-98,18.9-98h23.6V-129z"/>
		</g>
	</g>
	<g class="st0">
		<g class="st1">
			<path class="st6" d="M291-106.2c50.9-7.2,102.6-7.9,153.8-1.9l55.3,6.4c9,1,16.4-7,14.6-15.8l-1.4-7.3c-1.1-5.7-5.8-10-11.6-10.7
				l-63.8-7.4c-48.9-5.6-98.3-5.3-147,1l-51.5,12L291-106.2z"/>
		</g>
	</g>
	<g class="st0">
		<g class="st1">
			<path class="st7" d="M170.1-133.5V-98h35.3c62.6,0,104.3,9.7,163.9,28.8l53,17c8.6,2.8,17.4-3.7,17.4-12.7v-7.4
				c0-5.8-3.8-10.9-9.3-12.7l-61.2-19.6c-59.6-19.1-101.3-28.8-163.9-28.8L170.1-133.5z"/>
		</g>
	</g>
	<g class="st0">
		<g class="st1">
			<path class="st8" d="M170.1-126.3v-35.5h35.3c62.6,0,104.3-9.7,163.9-28.8l53-17c8.6-2.8,17.4,3.7,17.4,12.7v7.4
				c0,5.8-3.8,10.9-9.3,12.7l-61.2,19.6c-59.6,19.1-101.3,28.8-163.9,28.8L170.1-126.3z"/>
		</g>
	</g>
	<g>
		<g>
			<path class="st2" d="M171.2,118.3h20.4L202,87.4l-10.3-32.8h-26.2c-11.6,0-22.6-4.9-30.2-13.6C121.3,25,100.9,15.1,78.1,15.3
				c-40.8,0.4-74,34.2-73.9,75c0.2,41.1,33.5,74.3,74.7,74.3c24.5,0,46.3-11.8,59.9-30.1C146.5,124.3,158.5,118.3,171.2,118.3z"/>
		</g>
	</g>
	<g>
		<g>
			<path class="st3" d="M138.8,134.6c7.6-10.3,19.6-16.3,32.4-16.3h20.4l10.3-18l-10.3-12.9h-20.4c-12.8,0-24.8,6.1-32.4,16.3
				c-13.6,18.2-35.4,30.1-59.9,30.1C43,133.8,13,108.4,5.9,74.6C4.8,79.7,4.2,85,4.3,90.3c0.2,41.1,33.5,74.3,74.7,74.3
				C103.4,164.7,125.2,152.9,138.8,134.6L138.8,134.6z"/>
		</g>
	</g>
	<g>
		<g>
			<path class="st6" d="M281.7,110.2c50.9-7.2,102.6-7.9,153.8-1.9l55.3,6.4c9,1,16.4-7,14.6-15.8l-1.4-7.3
				c-1.1-5.7-5.8-10-11.6-10.7l-63.8-7.4c-48.9-5.6-98.3-5.3-147,1L230.2,90L281.7,110.2z"/>
		</g>
	</g>
	<g>
		<g>
			<path class="st7" d="M191.8,82.8v35.5h14.7c62.6,0,94,9.7,153.6,28.8l53,17c8.6,2.8,17.4-3.7,17.4-12.7v-7.4
				c0-5.8-3.8-10.9-9.3-12.7l-61.2-19.6c-59.6-19.1-91-28.8-153.6-28.8L191.8,82.8L191.8,82.8z"/>
		</g>
	</g>
	<g>
		<g>
			<path class="st8" d="M191.8,90V54.5h14.7c62.6,0,94-9.7,153.6-28.8l53-17c8.6-2.8,17.4,3.7,17.4,12.7v7.4
				c0,5.8-3.8,10.9-9.3,12.7l-61.2,19.6C300.5,80.3,269.1,90,206.5,90L191.8,90L191.8,90z"/>
		</g>
	</g>
</g>
</svg>
