<?xml version="1.0" encoding="UTF-8" standalone="no"?>
<!-- Created with Inkscape (http://www.inkscape.org/) -->

<svg
   xmlns:dc="http://purl.org/dc/elements/1.1/"
   xmlns:cc="http://creativecommons.org/ns#"
   xmlns:rdf="http://www.w3.org/1999/02/22-rdf-syntax-ns#"
   xmlns:svg="http://www.w3.org/2000/svg"
   xmlns="http://www.w3.org/2000/svg"
   xmlns:sodipodi="http://sodipodi.sourceforge.net/DTD/sodipodi-0.dtd"
   xmlns:inkscape="http://www.inkscape.org/namespaces/inkscape"
   width="211.75"
   height="319.78125"
   id="svg2"
   version="1.1"
   inkscape:version="0.48.0 r9654"
   sodipodi:docname="Shamrock_Royal_Badge_of_Ireland.svg"
   inkscape:export-filename="/Users/Soda/Desktop/UK of the GB and NI.png"
   inkscape:export-xdpi="143.23364"
   inkscape:export-ydpi="143.23364">
  <defs
     id="defs4" />
  <sodipodi:namedview
     id="base"
     pagecolor="#ffffff"
     bordercolor="#666666"
     borderopacity="1.0"
     inkscape:pageopacity="0.0"
     inkscape:pageshadow="2"
     inkscape:zoom="1.497899"
     inkscape:cx="105.875"
     inkscape:cy="159.89062"
     inkscape:document-units="px"
     inkscape:current-layer="layer1"
     showgrid="false"
     inkscape:window-width="1280"
     inkscape:window-height="697"
     inkscape:window-x="0"
     inkscape:window-y="0"
     inkscape:window-maximized="0"
     showguides="true"
     inkscape:guide-bbox="true"
     inkscape:object-nodes="false"
     inkscape:snap-nodes="false"
     inkscape:snap-page="true"
     inkscape:snap-bbox="false"
     inkscape:snap-grids="false"
     inkscape:snap-to-guides="false"
     fit-margin-top="0"
     fit-margin-left="0"
     fit-margin-right="0"
     fit-margin-bottom="0">
    <inkscape:grid
       type="xygrid"
       id="grid14322"
       empspacing="5"
       visible="true"
       enabled="true"
       snapvisiblegridlinesonly="true" />
  </sodipodi:namedview>
  <metadata
     id="metadata7">
    <rdf:RDF>
      <cc:Work
         rdf:about="">
        <dc:format>image/svg+xml</dc:format>
        <dc:type
           rdf:resource="http://purl.org/dc/dcmitype/StillImage" />
        <dc:title />
      </cc:Work>
    </rdf:RDF>
  </metadata>
  <g
     inkscape:label="Layer"
     inkscape:groupmode="layer"
     id="layer1"
     transform="translate(-78.775865,909.9375)"
     style="display:inline">
    <g
       style="stroke-width:0.88760686;stroke-miterlimit:4;stroke-dasharray:none"
       id="g11618-9-0-2"
       transform="matrix(1.1266249,0,0,1.1266249,186.79382,233.42356)" />
    <g
       style="display:inline"
       id="g12789-5-3-9-0"
       transform="matrix(0.99769824,0.06781019,-0.06781019,0.99769824,-130.31105,-830.2291)" />
    <g
       id="g5094">
      <g
         transform="translate(-0.01193456,0)"
         id="g4646">
        <path
           style="fill:#978733;fill-opacity:1;stroke:#6c591e;stroke-width:1px;stroke-linecap:butt;stroke-linejoin:miter;stroke-opacity:1"
           d="m 174.39003,-619.26736 c -1.69996,2.469 -6.94635,3.75585 -4.48842,7.61081 0,0 -4.66095,-0.91463 -6.53749,0.19514 -1.81971,1.07616 -3.21996,5.46417 -3.21996,5.46417 0,0 2.46475,-2.35006 3.90298,-2.04906 0.61153,0.12798 1.17089,1.46362 1.17089,1.46362 0,0 -3.2973,0.70143 -4.39085,1.85391 -1.11893,1.17921 -1.73923,2.9624 -1.65876,4.586 0.041,0.82821 1.03047,2.77637 1.65877,3.31753 1.59804,1.37643 2.82965,2.14664 2.82965,2.14664 0,0 -1.00397,-3.04946 -0.97574,-4.68357 0.0207,-1.19928 1.56379,-2.07013 2.73208,-2.34179 1.14486,-0.26621 3.41511,0.87817 3.41511,0.87817 0,0 -2.58904,1.07438 -2.73209,2.24421 -0.2116,1.73045 1.75634,6.24476 1.75634,6.24476 0,0 0.74928,-4.27624 1.36604,-5.07387 1.02786,-1.32927 4.87873,-1.26846 4.87873,-1.26846 0,0 0.58731,1.18078 0.29272,1.65876 -0.35633,0.57815 -1.27271,0.5635 -1.95149,0.58545 -0.43371,0.014 -1.26847,-0.29272 -1.26847,-0.29272 0,0 0.90235,2.22462 1.85392,2.82965 1.35854,0.86379 3.18847,0.91786 4.78115,0.68303 0.99332,-0.14646 1.91503,-0.68488 2.73208,-1.26847 0.91722,-0.65514 2.34179,-2.43936 2.34179,-2.43936 0,0 0.40482,1.28313 1.07331,2.04906 1.63943,1.87837 4.7976,2.53929 7.22051,1.95149 1.96885,-0.47765 1.92261,-2.37433 3.80541,-3.12238 1.84406,-0.73266 4.0862,-0.77289 5.95204,-0.0976 1.45295,0.52586 2.86862,1.62025 3.51268,3.02481 0.36604,0.79825 0.0976,1.56119 0.0976,1.56119 0,0 2.66092,-2.01883 2.82966,-3.61025 0.15954,-1.50458 -1.95149,-3.21996 -1.95149,-3.21996 0,0 1.76325,0.18491 2.63451,-0.0976 1.01489,-0.32904 1.71723,-1.49608 1.95149,-2.53694 0.27035,-1.20118 0.25045,-2.31017 -0.29272,-3.4151 -0.60077,-1.2221 -1.75634,-2.43937 -1.75634,-2.43937 0,0 0.22492,3.02652 -0.58545,4.1957 -0.31984,0.46146 -1.65876,0.29273 -1.65876,0.29273 l -1.65877,-3.61026 c 0,0 1.63871,-0.80691 2.04906,-1.56119 0.40531,-0.74503 0.19515,-2.53693 0.19515,-2.53693 0,0 -0.92945,1.35475 -1.65876,1.46361 -0.77738,0.11604 -1.6394,-0.37532 -2.14664,-0.97574 -0.73823,-0.87384 -0.26129,-2.35418 -0.87817,-3.31753 -1.56975,-2.4514 -6.73264,-5.56175 -6.73264,-5.56175 z"
           id="path4554"
           inkscape:connector-curvature="0"
           sodipodi:nodetypes="ccscscssscsscscscsscssscssssscscssscsccscssscc" />
        <g
           id="g4611">
          <path
             sodipodi:nodetypes="cscscsccsccsssccsccsscccscsccscsssssccscscscccsccccccccc"
             inkscape:connector-curvature="0"
             id="path4608"
             d="m 171.625,-612.75 c 0.43108,0.66945 0.41727,1.59731 -0.0335,2.25364 -0.45081,0.65632 -1.3119,1.00221 -2.09146,0.84011 0,0 -1.03156,-0.19916 -2.28125,-0.28125 -0.98638,-0.0648 -1.74695,0.0958 -2.21875,0.1875 0.93988,0.39915 1.33577,0.98962 1.59375,1.40625 0.31264,0.5049 6.98239,-0.23512 6.98239,-0.23512 0.4645,1.09638 -6.75684,3.72995 -7.91989,3.98512 0,0 -0.74624,0.1523 -1.59375,0.4375 -0.84751,0.2852 -1.79443,0.85764 -1.78125,0.84375 -0.42983,0.45299 -0.6912,1.13694 -0.875,1.84375 0.3007,-0.40916 0.62182,-0.79984 0.96875,-1.0625 0.82172,-0.62213 1.70098,-0.95592 2.5625,-1.15625 1.50603,-0.35019 2.46222,0.0978 3.3125,0.40625 0.85028,0.30846 6.80977,-2.58494 6.80977,-2.58494 0.79494,0.40555 -4.02415,4.61965 -4.21602,5.49119 0.30483,-0.0479 0.62501,-0.16556 0.90625,-0.1875 2.2997,-0.17942 7.94675,-7.47209 7.56091,-7.47209 1.39085,0.0141 -1.80987,7.78051 -3.40466,8.44084 0,0 0.21214,0.43015 0.375,0.96875 0.16286,0.5386 0.66225,1.27751 -0.1875,2.65625 -0.19989,0.32432 -0.45974,0.51874 -0.71875,0.71875 0.65549,0.10395 1.39718,0.14317 2.15625,0.0312 0.48296,-0.0712 1.11073,-0.405 1.8125,-0.90625 0.142,-0.10142 0.75635,-0.66654 1.1875,-1.15625 0.43115,-0.48971 1.02782,-9.42596 1.02782,-9.42596 0.45728,-0.57341 0.96372,7.65385 1.68479,7.78785 0.72108,0.13401 1.3479,0.68869 1.56864,1.38811 0,0 0.4753,1.10517 0.65625,1.3125 0.47343,0.54243 -0.41391,-10.93107 0.16278,-10.0757 0.39016,0.57871 1.02066,13.49219 5.08722,11.3882 0.38846,-0.0942 0.31641,-0.10775 0.75,-0.6875 0.43359,-0.57975 4.03285,-3.30465 2.75,-2.34375 -1.40289,1.05081 -9.20282,-7.11648 -6.37888,-8.6754 0.68933,-0.38053 1.94415,3.41613 4.38889,5.10941 3.44361,2.38513 8.33678,3.05755 9.39624,3.44099 1.42478,0.51566 2.66405,1.51687 3.65625,2.78125 0.002,0.006 0.0644,-0.11154 0.0625,-0.0937 -0.0288,0.27164 -0.10312,-0.21603 -0.46875,-0.65625 -0.36563,-0.44022 -0.75,-0.75 -0.75,-0.75 -0.6365,-0.50245 -0.92151,-1.40853 -0.68727,-2.18487 0.23424,-0.77635 0.97284,-1.37358 1.78102,-1.44013 -0.58488,-0.15048 -0.74595,-1.03916 -1.34375,-1.125 -4.11171,-0.59042 -8.11171,-2.2979 -11.97652,-5.35728 3.479,1.08326 7.06754,3.59055 10.32027,1.73228 -0.29627,-0.63339 -0.23479,-1.4203 0.15625,-2 -0.54263,-0.31389 -0.76003,-1.31968 -1.34489,-1.31021 -14.89239,0.24121 -2.15911,-1.12105 -1.21532,-3.89252 -0.0523,-0.64191 -0.26692,-0.72184 -0.18631,-0.59604 3.03979,-0.0806 -19.61889,7.84595 -28.00348,0.20502 z m 35.84375,12.25 c -0.24102,0.0651 -0.43279,0.10586 -0.625,0.125 0.26064,-0.021 0.64041,-0.0464 0.59375,-0.0312 -0.008,0.003 0.0313,-0.0888 0.0312,-0.0937 z"
             style="fill:#b8a13e;fill-opacity:1;stroke:none;display:inline" />
        </g>
      </g>
      <g
         transform="translate(-0.005385,0)"
         id="g4522">
        <g
           id="g4518">
          <path
             sodipodi:nodetypes="cssscssscc"
             inkscape:connector-curvature="0"
             id="path4542"
             d="m 187.72465,-790.55139 c 0,0 -9.0577,-24.1143 -11.34935,-36.71849 -1.99399,-10.96703 -2.56957,-22.3649 -0.86389,-33.38045 1.89718,-12.25228 6.88063,-19.75342 8.50199,-32.04523 0.55599,-4.21504 0.66761,-15.35501 0.66761,-15.35501 0,0 6.0424,10.73185 6.67609,16.69022 1.12204,10.55015 -3.79408,22.48424 -4.20192,33.08604 -0.2908,7.55915 3.87007,21.16097 4.88768,31.132 1.59779,15.65577 1.02266,25.24157 1.02266,25.24157 z"
             style="fill:#bcd35f;fill-opacity:1;stroke:#677821;stroke-width:1;stroke-linecap:butt;stroke-linejoin:miter;stroke-miterlimit:4;stroke-opacity:1;stroke-dasharray:none" />
          <path
             transform="translate(1.3335174,-0.80011043)"
             d="m 187.25,-894.8125 c -0.0655,0.80299 -0.0725,1.89626 -0.15625,2.53125 -1.70831,12.951 -6.69987,20.46826 -8.5,32.09375 -1.63929,10.58677 -1.10144,21.64514 0.84375,32.34375 1.59542,8.77488 6.03486,21.53773 8.71875,29.0625 l 1.78125,-3.8125 c 0.037,-0.67673 0.51707,-9.38519 -1,-24.25 -0.47984,-4.70174 -1.77108,-10.53024 -2.90625,-16.15625 -1.13517,-5.62601 -2.17009,-10.98483 -2,-15.40625 0.44132,-11.47223 5.21343,-23.2724 4.21875,-32.625 -0.0984,-0.92509 -0.51863,-2.33577 -1,-3.78125 z"
             id="path4516"
             style="fill:#a5c235;fill-opacity:1;stroke:none;display:inline"
             inkscape:original="M 184.6875 -908.0625 C 184.6875 -908.0625 184.55599 -896.90254 184 -892.6875 C 182.37864 -880.39569 177.39718 -872.90853 175.5 -860.65625 C 173.79432 -849.6407 174.38101 -838.24828 176.375 -827.28125 C 178.66665 -814.67706 187.71875 -790.5625 187.71875 -790.5625 L 193.0625 -801.90625 C 193.0625 -801.90625 193.62904 -811.50048 192.03125 -827.15625 C 191.01364 -837.12728 186.86545 -850.7221 187.15625 -858.28125 C 187.56409 -868.88305 192.46579 -880.82485 191.34375 -891.375 C 190.71006 -897.33337 184.6875 -908.0625 184.6875 -908.0625 z "
             inkscape:radius="-3.12292"
             sodipodi:type="inkscape:offset" />
        </g>
        <g
           id="g4452">
          <path
             sodipodi:nodetypes="csssscsssscc"
             inkscape:connector-curvature="0"
             d="m 171.31399,-787.0728 c 1.32075,-5.9172 2.04465,-20.07301 0.95953,-26.81671 -1.34115,-8.33498 -3.56327,-14.99374 -7.86956,-22.25504 -3.18734,-5.37455 -7.7769,-10.12424 -13.0813,-13.42699 -3.03482,-1.88961 -7.82802,-2.56479 -11.39083,-2.85996 -5.94739,-0.49272 -16.18869,2.41715 -16.18869,2.41715 0,0 3.38624,-5.1408 5.34503,-6.11218 3.61184,-1.79114 7.61119,-3.24918 11.64266,-3.27567 5.2226,-0.0343 11.81723,1.09828 16.38887,3.62346 6.74659,3.72662 14.73755,10.96187 18.91273,17.44044 7.13396,11.06966 12.0574,24.332 11.56037,38.12076 9.05896,18.03594 -18.76271,39.13116 -16.27881,13.14474 z"
             style="fill:#bcd35f;fill-opacity:1;stroke:none;display:inline"
             id="path4378-9-5-1-6" />
          <path
             sodipodi:nodetypes="csssscsssscc"
             inkscape:connector-curvature="0"
             d="m 171.31399,-787.0728 c 1.32075,-5.9172 2.04465,-20.07301 0.95953,-26.81671 -1.34115,-8.33498 -3.56327,-14.99374 -7.86956,-22.25504 -3.18734,-5.37455 -7.7769,-10.12424 -13.0813,-13.42699 -3.03482,-1.88961 -7.82802,-2.56479 -11.39083,-2.85996 -5.94739,-0.49272 -16.18869,2.41715 -16.18869,2.41715 0,0 3.12344,-1.98719 5.08223,-2.95857 3.61184,-1.79114 7.61119,-3.24918 11.64266,-3.27567 5.2226,-0.0343 11.81723,1.09828 16.38887,3.62346 6.74659,3.72662 10.79554,9.38506 14.97072,15.86363 7.13396,11.06966 12.0574,24.332 11.56037,38.12076 9.05896,18.03594 -14.5579,37.55435 -12.074,11.56794 z"
             style="fill:#a5c235;fill-opacity:1;stroke:none;display:inline"
             id="path4378-9-5-1-6-3-5" />
          <path
             sodipodi:nodetypes="csssscsssscc"
             inkscape:connector-curvature="0"
             d="m 171.31399,-787.0728 c 1.32075,-5.9172 2.04465,-20.07301 0.95953,-26.81671 -1.34115,-8.33498 -3.56327,-14.99374 -7.86956,-22.25504 -3.18734,-5.37455 -7.7769,-10.12424 -13.0813,-13.42699 -3.03482,-1.88961 -7.82802,-2.56479 -11.39083,-2.85996 -5.94739,-0.49272 -16.18869,2.41715 -16.18869,2.41715 0,0 3.38624,-5.1408 5.34503,-6.11218 3.61184,-1.79114 7.61119,-3.24918 11.64266,-3.27567 5.2226,-0.0343 11.81723,1.09828 16.38887,3.62346 6.74659,3.72662 14.73755,10.96187 18.91273,17.44044 7.13396,11.06966 12.0574,24.332 11.56037,38.12076 9.05896,18.03594 -18.76271,39.13115 -16.27881,13.14474 z"
             style="fill:none;stroke:#677821;stroke-width:1;stroke-linecap:butt;stroke-linejoin:miter;stroke-miterlimit:4;stroke-opacity:1;stroke-dasharray:none;display:inline"
             id="path4378-9-5-1-6-3" />
        </g>
        <g
           id="g4493">
          <path
             sodipodi:nodetypes="csssscsssscc"
             inkscape:connector-curvature="0"
             d="m 197.75811,-787.87829 c -1.28307,-5.92549 -1.91686,-20.08562 -0.78885,-26.82228 1.39416,-8.32627 3.6586,-14.97076 8.01102,-22.2045 3.22148,-5.35416 7.84117,-10.07455 13.1665,-13.34348 3.04677,-1.87025 7.84418,-2.51492 11.40878,-2.7874 5.95041,-0.45486 8.12574,12.13756 8.12574,12.13756 0.15684,-9.90369 0.009,-17.37216 -8.88036,-19.11321 -5.12535,-1.00378 -11.82398,1.02306 -16.4116,3.51909 -6.77017,3.68361 -14.80701,10.86786 -19.02333,17.31973 -7.20425,11.02403 -12.212,24.25477 -11.80273,38.04641 0.79064,26.64358 0.94994,23.263 7.60695,25.53032 z"
             style="fill:#bcd35f;fill-opacity:1;stroke:none;display:inline"
             id="path4378-9-5-1-9-1" />
          <path
             sodipodi:nodetypes="csssscsssscc"
             inkscape:connector-curvature="0"
             d="m 197.75811,-787.87829 c -1.28307,-5.92549 -1.91686,-20.08562 -0.78885,-26.82228 1.39416,-8.32627 3.6586,-14.97076 8.01102,-22.2045 3.22148,-5.35416 7.84117,-10.07455 13.1665,-13.34348 3.04677,-1.87025 7.84418,-2.51492 11.40878,-2.7874 5.95041,-0.45486 8.12574,12.13756 8.12574,12.13756 0.15684,-9.90369 0.009,-13.83866 -8.88036,-15.57971 -5.12535,-1.00378 -11.82398,1.02306 -16.4116,3.51909 -6.77017,3.68361 -11.27351,8.84872 -15.48983,15.30059 -7.20425,11.02403 -12.212,24.25477 -11.80273,38.04641 0.79064,26.64358 -2.58356,21.74864 4.07345,24.01596 z"
             style="fill:#a5c235;fill-opacity:1;stroke:none;display:inline"
             id="path4378-9-5-1-9-1-0-2" />
          <path
             sodipodi:nodetypes="csssscsssscc"
             inkscape:connector-curvature="0"
             d="m 197.75811,-787.87829 c -1.28307,-5.92549 -1.91686,-20.08562 -0.78885,-26.82228 1.39416,-8.32627 3.6586,-14.97076 8.01102,-22.2045 3.22148,-5.35416 7.84117,-10.07455 13.1665,-13.34348 3.04677,-1.87025 7.84418,-2.51492 11.40878,-2.7874 5.95041,-0.45486 8.12574,12.13756 8.12574,12.13756 0.15684,-9.90369 0.009,-17.37216 -8.88036,-19.11321 -5.12535,-1.00378 -11.82398,1.02306 -16.4116,3.51909 -6.77017,3.68361 -14.80701,10.86786 -19.02333,17.31973 -7.20425,11.02403 -12.212,24.25477 -11.80273,38.04641 0.79064,26.64358 0.94994,23.263 7.60695,25.53032 z"
             style="fill:none;stroke:#677821;stroke-width:1;stroke-linecap:butt;stroke-linejoin:miter;stroke-miterlimit:4;stroke-opacity:1;stroke-dasharray:none;display:inline"
             id="path4378-9-5-1-9-1-0" />
        </g>
        <g
           id="g4411">
          <path
             sodipodi:nodetypes="cssssscssssscc"
             inkscape:connector-curvature="0"
             d="m 194.86378,-731.91129 c -0.46375,-5.27475 -0.35107,-14.22225 -0.36092,-16.74344 -0.0292,-7.4849 2.83819,-24.74751 5.9287,-32.59342 3.81976,-9.69728 8.259,-19.60945 15.37089,-27.22842 5.26394,-5.63929 12.05379,-10.15451 19.32339,-12.7359 4.15915,-1.47688 10.11797,-1.02461 14.49256,-0.43916 7.30251,0.9773 12.76517,9.66171 12.76517,9.66171 0,0 -0.47091,-6.77229 -2.57647,-8.46131 -3.88245,-3.1144 -4.45558,-6.25156 -9.31037,-7.34876 -6.28918,-1.42136 -14.5413,-1.79803 -20.72175,0.0393 -9.12081,2.71147 -20.66938,9.32542 -27.41633,16.03509 -11.52823,11.46455 -20.97006,26.15745 -24.01411,42.91747 -5.88069,32.37808 9.06182,32.45088 16.51924,36.8968 z"
             style="fill:#bcd35f;fill-opacity:1;stroke:none;display:inline"
             id="path4378-9-5-1" />
          <path
             sodipodi:nodetypes="cssssscssssscc"
             inkscape:connector-curvature="0"
             d="m 194.86378,-731.91129 c -0.46375,-5.27475 -0.35107,-14.22225 -0.36092,-16.74344 -0.0292,-7.4849 2.83819,-24.74751 5.92871,-32.59342 3.81975,-9.69728 8.25899,-19.60945 15.37088,-27.22842 5.26394,-5.63929 12.05379,-10.15451 19.32339,-12.7359 4.15915,-1.47688 10.11797,-1.02461 14.49256,-0.43916 7.30251,0.9773 12.76517,9.66171 12.76517,9.66171 0,0 -2.30531,-6.46656 -4.41087,-8.15558 -3.88245,-3.1144 -4.45558,-4.41716 -9.31037,-5.51436 -6.28918,-1.42136 -12.7069,-0.88083 -18.88735,0.9565 -9.12081,2.71147 -17.61205,10.54836 -24.359,17.25803 -11.52823,11.46455 -20.97006,26.15745 -24.01411,42.91747 -5.88069,32.37808 6.00449,28.17061 13.46191,32.61653 z"
             style="fill:#a5c235;fill-opacity:1;stroke:none;display:inline"
             id="path4378-9-5-1-4-6" />
          <path
             sodipodi:nodetypes="cssssscssssscc"
             inkscape:connector-curvature="0"
             d="m 194.86378,-731.91129 c -0.46375,-5.27475 -0.35107,-14.22225 -0.36092,-16.74344 -0.0292,-7.4849 2.83819,-24.74751 5.92871,-32.59342 3.81975,-9.69728 8.25899,-19.60945 15.37088,-27.22842 5.26394,-5.63929 12.05379,-10.15451 19.32339,-12.7359 4.15915,-1.47688 10.11797,-1.02461 14.49256,-0.43916 7.30251,0.9773 12.76517,9.66171 12.76517,9.66171 0,0 -0.47091,-6.77229 -2.57647,-8.46131 -3.88245,-3.1144 -4.45558,-6.25156 -9.31037,-7.34876 -6.28918,-1.42136 -14.5413,-1.79803 -20.72175,0.0393 -9.12081,2.71147 -20.66938,9.32542 -27.41633,16.03509 -11.52823,11.46455 -20.97006,26.15745 -24.01411,42.91747 -5.88069,32.37808 9.06182,32.45088 16.51924,36.8968 z"
             style="fill:none;stroke:#677821;stroke-width:1;stroke-linecap:butt;stroke-linejoin:miter;stroke-miterlimit:4;stroke-opacity:1;stroke-dasharray:none;display:inline"
             id="path4378-9-5-1-4" />
        </g>
        <g
           id="g4370">
          <path
             sodipodi:nodetypes="csssssscssssscc"
             inkscape:connector-curvature="0"
             d="m 174.45947,-731.91129 c 0.46375,-5.27475 0.35107,-14.22224 0.36092,-16.74344 0.0292,-7.4849 -2.83819,-24.74751 -5.9287,-32.59342 -3.81975,-9.69728 -8.25899,-19.60945 -15.37088,-27.22842 -5.26394,-5.63929 -12.05379,-10.15451 -19.32339,-12.7359 -4.15915,-1.47688 -10.11798,-1.02461 -14.49256,-0.43916 -2.38452,0.31912 -10.17075,5.33479 -14.39923,6.00498 -8.7211,1.38223 -14.81566,-1.369 -14.81566,-1.369 0,0 13.05596,-2.06862 15.16152,-3.75764 3.88245,-3.1144 8.32025,-5.9295 13.17504,-7.0267 6.28918,-1.42136 14.5413,-1.79803 20.72175,0.0393 9.12081,2.71147 20.66938,9.32542 27.41633,16.03509 11.52822,11.46455 20.97005,26.15745 24.0141,42.91747 5.8807,32.37808 -9.06181,32.45088 -16.51924,36.8968 z"
             style="fill:#bcd35f;fill-opacity:1;stroke:none;display:inline"
             id="path4378-9-5-1-9" />
          <path
             sodipodi:nodetypes="cssssssccssscc"
             inkscape:connector-curvature="0"
             d="m 174.45947,-731.91129 c 0.46375,-5.27475 0.35107,-14.22224 0.36092,-16.74344 0.0292,-7.4849 -2.83819,-24.74751 -5.9287,-32.59342 -3.81975,-9.69728 -8.25899,-19.60945 -15.37088,-27.22842 -5.26394,-5.63929 -12.05379,-10.15451 -19.32339,-12.7359 -4.15915,-1.47688 -10.11798,-1.02461 -14.49256,-0.43916 -2.38452,0.31912 -10.17075,5.33479 -14.39923,6.00498 -8.7211,1.38223 -14.81566,-1.369 -14.81566,-1.369 13.94014,2.67874 19.32615,-4.68252 30.47669,-7.72701 6.28918,-1.42136 11.7897,-0.26936 17.97015,1.56797 9.12081,2.71147 18.83498,9.32542 25.58193,16.03509 11.52822,11.46455 17.91272,21.57145 20.95677,38.33147 5.8807,32.37808 -3.55861,32.45088 -11.01604,36.8968 z"
             style="fill:#a5c235;fill-opacity:1;stroke:none;display:inline"
             id="path4378-9-5-1-9-8-7" />
          <path
             sodipodi:nodetypes="csssssscssssscc"
             inkscape:connector-curvature="0"
             d="m 174.45947,-731.91129 c 0.46375,-5.27475 0.35107,-14.22224 0.36092,-16.74344 0.0292,-7.4849 -2.83819,-24.74751 -5.9287,-32.59342 -3.81975,-9.69728 -8.25899,-19.60945 -15.37088,-27.22842 -5.26394,-5.63929 -12.05379,-10.15451 -19.32339,-12.7359 -4.15915,-1.47688 -10.11798,-1.02461 -14.49256,-0.43916 -2.38452,0.31912 -10.17075,5.33479 -14.39923,6.00498 -8.7211,1.38223 -14.81566,-1.369 -14.81566,-1.369 0,0 13.05596,-2.06862 15.16152,-3.75764 3.88245,-3.1144 8.32025,-5.9295 13.17504,-7.0267 6.28918,-1.42136 14.5413,-1.79803 20.72175,0.0393 9.12081,2.71147 20.66938,9.32542 27.41633,16.03509 11.52822,11.46455 20.97005,26.15745 24.0141,42.91747 5.8807,32.37808 -9.06181,32.45088 -16.51924,36.8968 z"
             style="fill:none;stroke:#677821;stroke-width:1;stroke-linecap:butt;stroke-linejoin:miter;stroke-miterlimit:4;stroke-opacity:1;stroke-dasharray:none;display:inline"
             id="path4378-9-5-1-9-8" />
        </g>
        <g
           id="g4329">
          <path
             sodipodi:nodetypes="cssssscsssscc"
             inkscape:connector-curvature="0"
             d="m 170.79697,-694.08949 c 0.57254,-6.51203 0.43343,-17.55832 0.44559,-20.67091 0.0361,-9.24062 -3.50394,-20.67594 -7.31938,-30.36225 -4.71576,-11.97195 -10.19629,-24.20919 -18.9764,-33.61534 -6.49871,-6.96208 -14.88123,-12.53642 -23.85605,-15.72331 -5.13476,-1.82331 -12.49132,-1.26496 -17.89204,-0.54218 -9.01545,1.20654 -23.31387,11.92803 -23.31387,11.92803 0,0 3.36457,-8.75845 5.96402,-10.84366 4.79316,-3.84493 10.27191,-7.32037 16.26549,-8.67493 7.76441,-1.75477 16.22586,-1.18398 23.85605,1.08436 11.26025,3.3475 22.03267,9.60849 30.36224,17.89204 14.23239,14.15375 26.47144,32.09887 34.85849,51.38395 2.48074,40.55109 -11.18744,32.65541 -20.39414,38.1442 z"
             style="fill:#bcd35f;fill-opacity:1;stroke:none;display:inline"
             id="path4378-9-5" />
          <path
             sodipodi:nodetypes="cssssscsssscc"
             inkscape:connector-curvature="0"
             d="m 170.79697,-694.08949 c 0.57254,-6.51203 0.43343,-17.55832 0.44559,-20.67091 0.0361,-9.24062 -3.50394,-20.67594 -7.31938,-30.36225 -4.71576,-11.97195 -10.19629,-24.20919 -18.9764,-33.61534 -6.49871,-6.96208 -14.88123,-12.53642 -23.85605,-15.72331 -5.13476,-1.82331 -12.49132,-1.26496 -17.89204,-0.54218 -9.01545,1.20654 -23.31387,11.92803 -23.31387,11.92803 0,0 4.509443,-6.4687 7.108893,-8.55391 4.79316,-3.84493 10.27191,-5.88928 16.265487,-7.24384 7.76441,-1.75477 13.6499,-0.89776 21.28009,1.37058 11.26025,3.3475 20.31536,9.89471 28.64493,18.17826 14.23239,14.15375 21.89194,31.81265 30.27899,51.09773 2.48074,40.55109 -3.45954,28.64835 -12.66624,34.13714 z"
             style="fill:#a5c235;fill-opacity:1;stroke:none;display:inline"
             id="path4378-9-5-2-0" />
          <path
             sodipodi:nodetypes="cssssscsssscc"
             inkscape:connector-curvature="0"
             d="m 170.79697,-694.08949 c 0.57254,-6.51203 0.43343,-17.55832 0.44559,-20.67091 0.0361,-9.24062 -3.50394,-20.67594 -7.31938,-30.36225 -4.71576,-11.97195 -10.19629,-24.20919 -18.9764,-33.61534 -6.49871,-6.96208 -14.88123,-12.53642 -23.85605,-15.72331 -5.13476,-1.82331 -12.49132,-1.26496 -17.89204,-0.54218 -9.01545,1.20654 -23.31387,11.92803 -23.31387,11.92803 0,0 3.36457,-8.75845 5.96402,-10.84366 4.79316,-3.84493 10.27191,-7.32037 16.26549,-8.67493 7.76441,-1.75477 16.22586,-1.18398 23.85605,1.08436 11.26025,3.3475 22.03267,9.60849 30.36224,17.89204 14.23239,14.15375 26.47144,32.09887 34.85849,51.38395 2.48074,40.55109 -11.18744,32.65541 -20.39414,38.1442 z"
             style="fill:none;stroke:#677821;stroke-width:1;stroke-linecap:butt;stroke-linejoin:miter;stroke-miterlimit:4;stroke-opacity:1;stroke-dasharray:none;display:inline"
             id="path4378-9-5-2" />
        </g>
        <g
           id="g4285">
          <path
             sodipodi:nodetypes="cssssssssssssssssssssc"
             inkscape:connector-curvature="0"
             d="m 289.43845,-783.07545 c 0,0 -3.36457,-8.75845 -5.96402,-10.84366 -4.79316,-3.84493 -10.27191,-7.32037 -16.26549,-8.67493 -7.76441,-1.75477 -16.22586,-1.18398 -23.85605,1.08436 -11.26025,3.3475 -22.03267,9.60849 -30.36224,17.89204 -14.23239,14.15375 -26.47144,32.09887 -34.85849,51.38395 -5.34511,12.29049 -6.24362,25.7406 -7.33519,38.1442 -0.77527,8.80951 -1.21233,11.47863 -2.70849,20.10403 -1.73567,10.00617 -5.06291,24.88165 -5.52084,35.13068 -0.22602,5.05855 -1.69683,10.63944 0.54218,15.18112 2.38405,4.8359 7.66778,10.13318 13.01239,10.84365 5.16168,0.68615 12.37161,1.59972 17.07885,0 5.10489,-1.73485 10.62834,-6.00775 13.01239,-10.84365 2.23901,-4.54168 0.7682,-10.12257 0.54218,-15.18112 -0.45793,-10.24903 -3.78517,-25.12451 -5.52084,-35.13068 -1.49616,-8.6254 -1.93395,-11.29446 -2.70849,-20.10403 -0.57254,-6.51203 -0.43343,-17.55832 -0.44559,-20.67091 -0.0361,-9.24062 3.50394,-20.67594 7.31938,-30.36225 4.71576,-11.97195 10.19629,-24.20919 18.9764,-33.61534 6.49871,-6.96208 14.88123,-12.53642 23.85605,-15.72331 5.13476,-1.82331 12.49132,-1.26496 17.89204,-0.54218 9.01545,1.20654 23.31387,11.92803 23.31387,11.92803 z"
             style="fill:#eef4d7;fill-opacity:1;stroke:none;display:inline"
             id="path4378-9" />
          <path
             sodipodi:nodetypes="csssscssssscsc"
             inkscape:connector-curvature="0"
             d="m 198.08071,-714.7604 c -0.0361,-9.24062 3.50394,-20.67594 7.31938,-30.36225 4.71576,-11.97195 10.19629,-24.20919 18.9764,-33.61534 6.49871,-6.96208 14.88123,-12.53642 23.85605,-15.72331 5.13476,-1.82331 12.49132,-1.26496 17.89204,-0.54218 9.01545,1.20654 23.31387,11.92803 23.31387,11.92803 0,0 -3.36457,-8.75845 -5.96402,-10.84366 -4.79316,-3.84493 -10.27191,-7.32037 -16.26549,-8.67493 -7.76441,-1.75477 -16.22586,-1.18398 -23.85605,1.08436 -11.26025,3.3475 -22.03267,9.60849 -30.36224,17.89204 -14.23239,14.15375 -26.47145,32.09887 -34.85849,51.38395 -2.90174,6.67223 -3.79938,13.53207 -4.18834,20.39393 1.1211,18.90708 23.11961,18.33379 24.17569,12.27812 0.69365,-3.97744 -0.74649,-10.56374 -0.0388,-15.19876 z"
             style="fill:#bcd35f;fill-opacity:1;stroke:none;display:inline"
             id="path4378-9-0" />
          <path
             sodipodi:nodetypes="csssscsssscsc"
             inkscape:connector-curvature="0"
             d="m 199.94573,-728.38253 c 1.38134,-5.67417 3.37703,-11.46638 5.45436,-16.74012 4.71575,-11.97195 10.19629,-24.20919 18.9764,-33.61534 6.49871,-6.96208 14.88123,-12.53642 23.85605,-15.72331 5.13476,-1.82331 12.49132,-1.26496 17.89204,-0.54218 9.01545,1.20654 23.31387,11.92803 23.31387,11.92803 0,0 -4.95829,-6.48171 -7.55774,-8.56692 -4.79316,-3.84493 -8.67819,-5.72666 -14.67177,-7.08122 -7.76441,-1.75477 -16.22586,-1.18398 -23.85605,1.08436 -11.26025,3.3475 -17.6106,7.84694 -25.94017,16.13049 -14.23239,14.15375 -27.77764,35.59855 -36.16468,54.88363 -3.11807,26.76073 15.41259,27.9729 14.18283,13.32651 -0.36791,-4.38173 3.43702,-9.14983 4.51486,-15.08393 z"
             style="fill:#a5c235;fill-opacity:1;stroke:none;display:inline"
             id="path4378-9-0-1" />
          <path
             sodipodi:nodetypes="csscccscsscscscscsscsscsscsscscscsccc"
             inkscape:connector-curvature="0"
             d="m 163.10982,-623.67366 c 2.38405,4.8359 7.66778,10.13318 13.01239,10.84365 5.16168,0.68615 12.37161,1.59972 17.07885,0 5.10489,-1.73485 10.62834,-6.00775 13.01239,-10.84365 l -2.02174,-7.32994 0.24927,1.37098 c 0,0 0.49778,4.40147 -0.49854,6.23176 -1.17594,2.16027 -5.85785,4.48686 -5.85785,4.48686 0,0 1.44434,-1.96405 1.74489,-3.11587 0.22028,-0.84418 0.2107,-1.77072 0,-2.61734 -0.55656,-2.23632 -3.24051,-6.10712 -3.24051,-6.10712 0,0 1.38949,5.73087 0.24927,8.22591 -0.95741,2.09501 -5.35931,4.36223 -5.35931,4.36223 0,0 1.87771,-2.86663 1.86953,-4.48686 -0.0112,-2.21476 -2.61734,-6.10712 -2.61734,-6.10712 0,0 0.78561,3.83339 0,5.48394 -0.73617,1.54668 -3.98832,3.24052 -3.98832,3.24052 0,0 0.48896,-2.6277 0.12463,-3.86369 -0.37145,-1.26016 -2.01951,-1.94596 -2.24343,-3.24051 -0.19066,-1.10227 0.87245,-3.24052 0.87245,-3.24052 0,0 -2.12356,1.56321 -2.49271,2.74198 -0.47587,1.51955 1.09056,3.21395 0.62318,4.73613 -0.44052,1.4347 -2.99124,3.36515 -2.99124,3.36515 0,0 0.32506,-2.29156 0,-3.36515 -0.52089,-1.72038 -2.43607,-2.77723 -2.99124,-4.48686 -0.32104,-0.98864 -0.12464,-3.11588 -0.12464,-3.11588 0,0 -1.11407,1.66012 -1.24635,2.61734 -0.20195,1.4614 1.1043,2.93065 0.74781,4.36222 -0.27911,1.12084 -2.1188,2.74198 -2.1188,2.74198 0,0 -3.4336,-2.34512 -3.98832,-4.11296 -0.2885,-0.91943 0.74782,-4.2376 0.74782,-4.2376 0,0 -2.19006,2.27079 -2.49271,3.48979 -0.57769,2.32676 2.61734,6.35639 2.61734,6.35639 0,0 -4.70725,-3.69753 -6.60566,-5.98249 -1.21577,-1.46332 -2.99125,-4.86077 -2.99125,-4.86077 l -0.3739,3.73906 z"
             style="fill:#c3b44d;fill-opacity:1;stroke:none;display:inline"
             id="path4378-9-8" />
          <path
             sodipodi:nodetypes="cssssssssssssssssssssc"
             inkscape:connector-curvature="0"
             d="m 289.43845,-783.07545 c 0,0 -3.36457,-8.75845 -5.96402,-10.84366 -4.79316,-3.84493 -10.27191,-7.32037 -16.26549,-8.67493 -7.76441,-1.75477 -16.22586,-1.18398 -23.85605,1.08436 -11.26025,3.3475 -22.03267,9.60849 -30.36224,17.89204 -14.23239,14.15375 -26.47144,32.09887 -34.85849,51.38395 -5.34511,12.29049 -6.24362,25.7406 -7.33519,38.1442 -0.77527,8.80951 -1.21233,11.47863 -2.70849,20.10403 -1.73567,10.00617 -5.06291,24.88165 -5.52084,35.13068 -0.22602,5.05855 -1.69683,10.63944 0.54218,15.18112 2.38405,4.8359 7.66778,10.13318 13.01239,10.84365 5.16168,0.68615 12.37161,1.59972 17.07885,0 5.10489,-1.73485 10.62834,-6.00775 13.01239,-10.84365 2.23901,-4.54168 0.7682,-10.12257 0.54218,-15.18112 -0.45793,-10.24903 -3.78517,-25.12451 -5.52084,-35.13068 -1.49616,-8.6254 -1.93395,-11.29446 -2.70849,-20.10403 -0.57254,-6.51203 -0.43343,-17.55832 -0.44559,-20.67091 -0.0361,-9.24062 3.50394,-20.67594 7.31938,-30.36225 4.71576,-11.97195 10.19629,-24.20919 18.9764,-33.61534 6.49871,-6.96208 14.88123,-12.53642 23.85605,-15.72331 5.13476,-1.82331 12.49132,-1.26496 17.89204,-0.54218 9.01545,1.20654 23.31387,11.92803 23.31387,11.92803 z"
             style="fill:none;stroke:#677821;stroke-width:1;stroke-linecap:butt;stroke-linejoin:miter;stroke-miterlimit:4;stroke-opacity:1;stroke-dasharray:none;display:inline"
             id="path4378-9-9" />
          <path
             sodipodi:nodetypes="ccssccccccscssccccc"
             transform="translate(78.80881,-909.93693)"
             inkscape:connector-curvature="0"
             id="path4283"
             d="m 96.387938,214.13427 -1.311401,13.76971 c 0,0 -3.024017,15.42547 -4.371335,23.16807 -0.872705,5.01515 -2.255558,9.99277 -2.404234,15.08111 -0.106923,3.65939 1.092834,10.92834 1.092834,10.92834 l 4.152768,-5.68274 4.808469,5.2456 c -0.397484,-4.00706 1.121131,-8.01411 2.404231,-12.02117 0.60716,3.85164 1.42864,7.83023 3.71564,12.67687 l 2.84137,-6.77557 c 0,0 1.89468,4.57729 3.71563,6.11987 0.89809,0.76079 3.2785,1.3114 3.2785,1.3114 0,0 -1.18162,-4.63319 -1.52997,-6.99413 -0.95999,-6.50637 -1.01616,-13.1143 -1.52996,-19.67101 -0.86783,-11.07456 -2.6228,-33.22215 -2.6228,-33.22215 l -3.49707,14.86254 c -0.90089,-4.35802 -2.77136,-8.23126 -2.6228,-13.11401 -2.820103,3.18845 -2.49962,7.42377 -3.715638,11.14691 z"
             style="fill:#f7faeb;fill-opacity:1;stroke:none" />
        </g>
      </g>
    </g>
  </g>
</svg>
