<?xml version="1.0" encoding="utf-8"?>
<!-- Generator: Adobe Illustrator 24.2.1, SVG Export Plug-In . SVG Version: 6.00 Build 0)  -->
<svg version="1.1" width="12" height="12" xmlns="http://www.w3.org/2000/svg" xmlns:xlink="http://www.w3.org/1999/xlink" x="0px" y="0px"
	 viewBox="0 0 16 16" style="enable-background:new 0 0 16 16;" xml:space="preserve">
<style type="text/css">
	.st0{opacity:0.4;fill:#4EA3F2;enable-background:new    ;}
	.st1{fill:#4EA3F2;}
</style>
<rect x="5.7" y="5" transform="matrix(0.4869 -0.8734 0.8734 0.4869 -3.6007 9.0854)" class="st0" width="0.5" height="5.1"/>
<polygon class="st0" points="10,0.3 6.3,0.3 6.3,0.9 7.9,0.9 7.9,1.5 8.4,1.5 8.4,0.9 10,0.9 "/>
<path class="st1" d="M7.7,9C7.6,8.7,7.8,8.5,8.1,8.4c0.3-0.1,0.6,0.1,0.6,0.4S8.6,9.3,8.4,9.4c0,0,0,0,0,0C8.1,9.5,7.8,9.3,7.7,9
	C7.7,9,7.7,9,7.7,9z"/>
<path class="st1" d="M8.1,15.8c-3.7,0-6.8-3-6.8-6.8c0-0.6,0.1-1.2,0.2-1.8l0.7,0.2c-0.9,3.2,1,6.5,4.2,7.4c3.2,0.9,6.5-1,7.4-4.2
	C14.4,9,14.2,7.4,13.4,6L14,5.7c1.8,3.3,0.7,7.4-2.5,9.2C10.4,15.5,9.3,15.8,8.1,15.8z"/>
<polygon class="st1" points="0.8,7.2 2.6,5.8 2.9,8 "/>
<path class="st1" d="M13.4,6c-1.1-1.9-3.1-3-5.2-3V2.3c2.4,0,4.6,1.3,5.8,3.4L13.4,6z"/>
</svg>
